<svg width="800px" height="800px" viewBox="0 0 24 24" fill="none" xmlns="http://www.w3.org/2000/svg">
<path d="M15 21H9C6.17157 21 4.75736 21 3.87868 20.1213C3 19.2426 3 17.8284 3 15V9C3 6.17157 3 4.75736 3.87868 3.87868C4.75736 3 6.17157 3 9 3H15C17.8284 3 19.2426 3 20.1213 3.87868C21 4.75736 21 6.17157 21 9V15C21 17.8284 21 19.2426 20.1213 20.1213C19.2426 21 17.8284 21 15 21Z" stroke="#00A86B" stroke-width="2" stroke-linecap="round" stroke-linejoin="round"/>
<path d="M9 8L10 9L9 10" stroke="#00A86B" stroke-width="2" stroke-linecap="round" stroke-linejoin="round"/>
<path d="M15 8L14 9L15 10" stroke="#00A86B" stroke-width="2" stroke-linecap="round" stroke-linejoin="round"/>
<path d="M12 15C10.8954 15 10 14.1046 10 13" stroke="#00A86B" stroke-width="2" stroke-linecap="round" stroke-linejoin="round"/>
</svg>
