<svg width="800px" height="800px" viewBox="0 0 24 24" xmlns="http://www.w3.org/2000/svg">
<path fill="#4285F4" d="M21.7199 12.2114C21.7199 11.4995 21.6589 10.8145 21.5369 10.1565H12.2439V13.9055H17.6249C17.3939 15.0895 16.7059 16.0755 15.6659 16.7365V19.2375H18.7799C20.6899 17.4945 21.7199 15.0895 21.7199 12.2114Z"/>
<path fill="#34A853" d="M12.2439 21.9999C14.8919 21.9999 17.1269 21.1039 18.7799 19.2379L15.6659 16.7369C14.7899 17.3349 13.6389 17.6879 12.2439 17.6879C9.65591 17.6879 7.46391 15.9599 6.70591 13.6099H3.48291V16.1879C5.12391 19.5559 8.44791 21.9999 12.2439 21.9999Z"/>
<path fill="#FBBC05" d="M6.70593 13.6098C6.50793 12.9458 6.39893 12.2338 6.39893 11.4998C6.39893 10.7658 6.50793 10.0538 6.70593 9.38977V6.81177H3.48293C2.82393 8.20977 2.43994 9.80177 2.43994 11.4998C2.43994 13.1978 2.82393 14.7898 3.48293 16.1878L6.70593 13.6098Z"/>
<path fill="#EA4335" d="M12.2439 5.31171C13.7609 5.31171 15.1289 5.87971 16.2049 6.89571L18.9949 4.10571C17.1269 2.37771 14.8919 1.29971 12.2439 1.29971C8.44791 1.29971 5.12391 3.74371 3.48291 7.11171L6.70591 9.68971C7.46391 7.33971 9.65591 5.31171 12.2439 5.31171Z"/>
</svg>
