<svg width="800px" height="800px" viewBox="0 0 32 32" xmlns="http://www.w3.org/2000/svg">
<path d="M30.148 16.02c0-1.068-0.088-1.84-0.276-2.648h-13.852v4.816h8.232c-0.168 1.424-1.072 3.568-3.084 5.004l-0.028 0.184 4.48 3.468 0.308 0.032c2.856-2.64 4.22-6.52 4.22-9.856z" fill="#4285F4"/>
<path d="M16.02 30.148c4.072 0 7.488-1.34 9.984-3.628l-4.76-3.684c-1.272 0.884-2.976 1.5-5.224 1.5-3.988 0-7.372-2.624-8.584-6.248l-0.176 0.016-4.656 3.592-0.060 0.168c2.476 4.916 7.556 8.284 13.476 8.284z" fill="#34A853"/>
<path d="M7.436 18.088c-0.32-0.948-0.5-1.964-0.5-3.008 0-1.044 0.18-2.060 0.48-3.008l-0.008-0.2-4.716-3.664-0.156 0.072c-1.028 2.060-1.616 4.38-1.616 6.8 0 2.42 0.588 4.74 1.616 6.8l4.916-3.792z" fill="#FBBC05"/>
<path d="M16.02 6.832c2.836 0 4.748 1.228 5.84 2.252l4.26-4.16c-2.624-2.44-6.040-3.936-10.1-3.936-5.92 0-11 3.368-13.476 8.284l4.88 3.792c1.232-3.624 4.616-6.232 8.596-6.232z" fill="#EA4335"/>
</svg>
