<svg xmlns="http://www.w3.org/2000/svg" viewBox="0 0 512 512">
  <path fill="#00A86B" d="M256 8C119 8 8 119 8 256s111 248 248 248 248-111 248-248S393 8 256 8zm-48 448c-35.3 0-64-28.7-64-64V256h64v140c0 6.6 5.4 12 12 12h40c6.6 0 12-5.4 12-12V256h64v140c0 6.6 5.4 12 12 12h40c6.6 0 12-5.4 12-12V256h8c13.3 0 24-10.7 24-24v-16c0-13.3-10.7-24-24-24h-8v-20c0-6.6-5.4-12-12-12h-40c-6.6 0-12 5.4-12 12v20h-64v-20c0-6.6-5.4-12-12-12h-40c-6.6 0-12 5.4-12 12v20h-64v-20c0-6.6-5.4-12-12-12H96c-6.6 0-12 5.4-12 12v20H76c-13.3 0-24 10.7-24 24v16c0 13.3 10.7 24 24 24h8v140c0 35.3 28.7 64 64 64h60z"/>
</svg>
